<svg width="32" height="32" viewBox="0 0 32 32" fill="none" xmlns="http://www.w3.org/2000/svg">
<path d="M2.66602 16C2.66602 9.71463 2.66602 6.57196 4.61802 4.61863C6.57268 2.66663 9.71401 2.66663 15.9993 2.66663C22.2847 2.66663 25.4273 2.66663 27.3793 4.61863C29.3327 6.57329 29.3327 9.71463 29.3327 16C29.3327 22.2853 29.3327 25.428 27.3793 27.38C25.4287 29.3333 22.2847 29.3333 15.9993 29.3333C9.71401 29.3333 6.57135 29.3333 4.61802 27.38C2.66602 25.4293 2.66602 22.2853 2.66602 16Z" stroke="#E0A130" stroke-width="2"/>
<path d="M9.33203 13.3333L12.3894 16.3906C12.6394 16.6405 12.9785 16.781 13.332 16.781C13.6856 16.781 14.0247 16.6405 14.2747 16.3906L16.3894 14.2759C16.6394 14.026 16.9785 13.8855 17.332 13.8855C17.6856 13.8855 18.0247 14.026 18.2747 14.2759L22.6654 18.6666M22.6654 18.6666V15.3333M22.6654 18.6666H19.332" stroke="#E0A130" stroke-width="2" stroke-linecap="round" stroke-linejoin="round"/>
</svg>
