<svg width="97" height="412" viewBox="0 0 97 412" fill="none" xmlns="http://www.w3.org/2000/svg">
<path d="M10.6673 5.33337C10.6673 2.38785 8.2795 4.57764e-05 5.33398 4.57764e-05C2.38847 4.57764e-05 0.000648499 2.38785 0.000648499 5.33337C0.000648499 8.2789 2.38847 10.6667 5.33398 10.6667C8.2795 10.6667 10.6673 8.2789 10.6673 5.33337ZM5.33398 5.33337L5.56011 6.30746C9.67006 5.35338 17.1642 7.42146 25.4442 18.0842C33.6978 28.713 42.5713 47.7151 49.3553 80.0388L50.334 79.8334L51.3127 79.628C44.4966 47.1516 35.5368 27.8204 27.0238 16.8575C18.5371 5.92862 10.3312 3.1467 5.10786 4.35928L5.33398 5.33337ZM50.334 79.8334L49.3553 80.0388C56.1726 112.521 65.2965 132.913 73.9925 145.211C82.6537 157.459 91.0149 161.833 96.334 161.833V160.833V159.833C91.9864 159.833 84.1476 156.108 75.6255 144.056C67.1381 132.054 58.0953 111.945 51.3127 79.628L50.334 79.8334Z" fill="#005829"/>
<path d="M10.6673 205.833C10.6673 208.779 8.2795 211.167 5.33398 211.167C2.38847 211.167 0.000648499 208.779 0.000648499 205.833C0.000648499 202.888 2.38847 200.5 5.33398 200.5C8.2795 200.5 10.6673 202.888 10.6673 205.833ZM95.834 204.833H96.834V206.833H95.834V205.833V204.833ZM5.33398 205.833V204.833H95.834V205.833V206.833H5.33398V205.833Z" fill="#005829"/>
<path d="M10.6673 406.333C10.6673 409.279 8.2795 411.667 5.33398 411.667C2.38847 411.667 0.000648499 409.279 0.000648499 406.333C0.000648499 403.388 2.38847 401 5.33398 401C8.2795 401 10.6673 403.388 10.6673 406.333ZM5.33398 406.333L5.56011 405.359C9.67006 406.313 17.1642 404.245 25.4442 393.583C33.6978 382.954 42.5713 363.952 49.3553 331.628L50.334 331.833L51.3127 332.039C44.4966 364.515 35.5368 383.846 27.0238 394.809C18.5371 405.738 10.3312 408.52 5.10786 407.307L5.33398 406.333ZM50.334 331.833L49.3553 331.628C56.1726 299.145 65.2965 278.754 73.9925 266.456C82.6537 254.208 91.0149 249.833 96.334 249.833V250.833V251.833C91.9864 251.833 84.1476 255.559 75.6255 267.611C67.1381 279.613 58.0953 299.721 51.3127 332.039L50.334 331.833Z" fill="#005829"/>
</svg>
