<svg width="98" height="412" viewBox="0 0 98 412" fill="none" xmlns="http://www.w3.org/2000/svg">
<path d="M86.6667 5.33337C86.6667 2.38785 89.0545 4.57764e-05 92 4.57764e-05C94.9455 4.57764e-05 97.3333 2.38785 97.3333 5.33337C97.3333 8.2789 94.9455 10.6667 92 10.6667C89.0545 10.6667 86.6667 8.2789 86.6667 5.33337ZM92 5.33337L91.7739 6.30746C87.6639 5.35338 80.1698 7.42146 71.8898 18.0842C63.6362 28.713 54.7627 47.7151 47.9787 80.0388L47 79.8334L46.0213 79.628C52.8373 47.1516 61.7971 27.8204 70.3102 16.8575C78.7969 5.92862 87.0027 3.1467 92.2261 4.35928L92 5.33337ZM47 79.8334L47.9787 80.0388C41.1613 112.521 32.0375 132.913 23.3415 145.211C14.6803 157.459 6.31906 161.833 1 161.833V160.833V159.833C5.34761 159.833 13.1864 156.108 21.7085 144.056C30.1958 132.054 39.2387 111.945 46.0213 79.628L47 79.8334Z" fill="#005829"/>
<path d="M86.1667 205.833C86.1667 208.779 88.5545 211.167 91.5 211.167C94.4455 211.167 96.8333 208.779 96.8333 205.833C96.8333 202.888 94.4455 200.5 91.5 200.5C88.5545 200.5 86.1667 202.888 86.1667 205.833ZM1 204.833H0V206.833H1V205.833V204.833ZM91.5 205.833V204.833H1V205.833V206.833H91.5V205.833Z" fill="#005829"/>
<path d="M86.6667 406.333C86.6667 409.279 89.0545 411.667 92 411.667C94.9455 411.667 97.3333 409.279 97.3333 406.333C97.3333 403.388 94.9455 401 92 401C89.0545 401 86.6667 403.388 86.6667 406.333ZM92 406.333L91.7739 405.359C87.6639 406.313 80.1698 404.245 71.8898 393.583C63.6362 382.954 54.7627 363.952 47.9787 331.628L47 331.833L46.0213 332.039C52.8373 364.515 61.7971 383.846 70.3102 394.809C78.7969 405.738 87.0027 408.52 92.2261 407.307L92 406.333ZM47 331.833L47.9787 331.628C41.1613 299.145 32.0375 278.754 23.3415 266.456C14.6803 254.208 6.31906 249.833 1 249.833V250.833V251.833C5.34761 251.833 13.1864 255.559 21.7085 267.611C30.1958 279.613 39.2387 299.721 46.0213 332.039L47 331.833Z" fill="#005829"/>
</svg>
