<svg width="32" height="32" viewBox="0 0 32 32" fill="none" xmlns="http://www.w3.org/2000/svg">
<path d="M2.66602 16C2.66602 22.2854 2.66602 25.428 4.61802 27.3814C6.57268 29.3334 9.71401 29.3334 15.9993 29.3334C22.2847 29.3334 25.4273 29.3334 27.3793 27.3814C29.3327 25.4267 29.3327 22.2854 29.3327 16C29.3327 9.71471 29.3327 6.57204 27.3793 4.62004C25.4287 2.66671 22.2847 2.66671 15.9993 2.66671C9.71401 2.66671 6.57135 2.66671 4.61802 4.62004C2.66602 6.57071 2.66602 9.71471 2.66602 16Z" stroke="white" stroke-width="2"/>
<path d="M9.33203 18.6667L12.3894 15.6094C12.6394 15.3595 12.9785 15.219 13.332 15.219C13.6856 15.219 14.0247 15.3595 14.2747 15.6094L16.3894 17.7241C16.6394 17.974 16.9785 18.1145 17.332 18.1145C17.6856 18.1145 18.0247 17.974 18.2747 17.7241L22.6654 13.3334M22.6654 13.3334V16.6667M22.6654 13.3334H19.332" stroke="white" stroke-width="2" stroke-linecap="round" stroke-linejoin="round"/>
</svg>
